<svg xmlns="http://www.w3.org/2000/svg" width="1200" height="1200">
<line x1="132" y1="132" x2="332" y2="332" stroke="#000" stroke-width="8"/>
<line x1="132" y1="132" x2="332" y2="532" stroke="#000" stroke-width="8"/>
<line x1="132" y1="132" x2="332" y2="732" stroke="#000" stroke-width="8"/>
<line x1="132" y1="132" x2="332" y2="932" stroke="#000" stroke-width="8"/>
<line x1="132" y1="332" x2="332" y2="332" stroke="#000" stroke-width="8"/>
<line x1="132" y1="332" x2="332" y2="532" stroke="#000" stroke-width="8"/>
<line x1="132" y1="332" x2="332" y2="732" stroke="#000" stroke-width="8"/>
<line x1="132" y1="332" x2="332" y2="932" stroke="#000" stroke-width="8"/>
<line x1="132" y1="532" x2="332" y2="332" stroke="#000" stroke-width="8"/>
<line x1="132" y1="532" x2="332" y2="532" stroke="#000" stroke-width="8"/>
<line x1="132" y1="532" x2="332" y2="732" stroke="#000" stroke-width="8"/>
<line x1="132" y1="532" x2="332" y2="932" stroke="#000" stroke-width="8"/>
<line x1="132" y1="732" x2="332" y2="332" stroke="#000" stroke-width="8"/>
<line x1="132" y1="732" x2="332" y2="532" stroke="#000" stroke-width="8"/>
<line x1="132" y1="732" x2="332" y2="732" stroke="#000" stroke-width="8"/>
<line x1="132" y1="732" x2="332" y2="932" stroke="#000" stroke-width="8"/>
<line x1="132" y1="932" x2="332" y2="332" stroke="#000" stroke-width="8"/>
<line x1="132" y1="932" x2="332" y2="532" stroke="#000" stroke-width="8"/>
<line x1="132" y1="932" x2="332" y2="732" stroke="#000" stroke-width="8"/>
<line x1="132" y1="932" x2="332" y2="932" stroke="#000" stroke-width="8"/>
<line x1="132" y1="1132" x2="332" y2="332" stroke="#000" stroke-width="8"/>
<line x1="132" y1="1132" x2="332" y2="532" stroke="#000" stroke-width="8"/>
<line x1="132" y1="1132" x2="332" y2="732" stroke="#000" stroke-width="8"/>
<line x1="132" y1="1132" x2="332" y2="932" stroke="#000" stroke-width="8"/>
<line x1="332" y1="332" x2="532" y2="332" stroke="#000" stroke-width="8"/>
<line x1="332" y1="332" x2="532" y2="532" stroke="#000" stroke-width="8"/>
<line x1="332" y1="332" x2="532" y2="732" stroke="#000" stroke-width="8"/>
<line x1="332" y1="332" x2="532" y2="932" stroke="#000" stroke-width="8"/>
<line x1="332" y1="532" x2="532" y2="332" stroke="#000" stroke-width="8"/>
<line x1="332" y1="532" x2="532" y2="532" stroke="#000" stroke-width="8"/>
<line x1="332" y1="532" x2="532" y2="732" stroke="#000" stroke-width="8"/>
<line x1="332" y1="532" x2="532" y2="932" stroke="#000" stroke-width="8"/>
<line x1="332" y1="732" x2="532" y2="332" stroke="#000" stroke-width="8"/>
<line x1="332" y1="732" x2="532" y2="532" stroke="#000" stroke-width="8"/>
<line x1="332" y1="732" x2="532" y2="732" stroke="#000" stroke-width="8"/>
<line x1="332" y1="732" x2="532" y2="932" stroke="#000" stroke-width="8"/>
<line x1="332" y1="932" x2="532" y2="332" stroke="#000" stroke-width="8"/>
<line x1="332" y1="932" x2="532" y2="532" stroke="#000" stroke-width="8"/>
<line x1="332" y1="932" x2="532" y2="732" stroke="#000" stroke-width="8"/>
<line x1="332" y1="932" x2="532" y2="932" stroke="#000" stroke-width="8"/>
<line x1="532" y1="332" x2="732" y2="432" stroke="#000" stroke-width="8"/>
<line x1="532" y1="332" x2="732" y2="632" stroke="#000" stroke-width="8"/>
<line x1="532" y1="332" x2="732" y2="832" stroke="#000" stroke-width="8"/>
<line x1="532" y1="532" x2="732" y2="432" stroke="#000" stroke-width="8"/>
<line x1="532" y1="532" x2="732" y2="632" stroke="#000" stroke-width="8"/>
<line x1="532" y1="532" x2="732" y2="832" stroke="#000" stroke-width="8"/>
<line x1="532" y1="732" x2="732" y2="432" stroke="#000" stroke-width="8"/>
<line x1="532" y1="732" x2="732" y2="632" stroke="#000" stroke-width="8"/>
<line x1="532" y1="732" x2="732" y2="832" stroke="#000" stroke-width="8"/>
<line x1="532" y1="932" x2="732" y2="432" stroke="#000" stroke-width="8"/>
<line x1="532" y1="932" x2="732" y2="632" stroke="#000" stroke-width="8"/>
<line x1="532" y1="932" x2="732" y2="832" stroke="#000" stroke-width="8"/>
<circle cx="132" cy="132" r="64" fill="#8f8f8f" stroke="#000" stroke-width="8"/>
<circle cx="132" cy="332" r="64" fill="#8f8f8f" stroke="#000" stroke-width="8"/>
<circle cx="132" cy="532" r="64" fill="#8f8f8f" stroke="#000" stroke-width="8"/>
<circle cx="132" cy="732" r="64" fill="#8f8f8f" stroke="#000" stroke-width="8"/>
<circle cx="132" cy="932" r="64" fill="#8f8f8f" stroke="#000" stroke-width="8"/>
<circle cx="132" cy="1132" r="64" fill="#8f8f8f" stroke="#000" stroke-width="8"/>
<circle cx="332" cy="332" r="64" fill="#8f8f8f" stroke="#000" stroke-width="8"/>
<circle cx="332" cy="532" r="64" fill="#8f8f8f" stroke="#000" stroke-width="8"/>
<circle cx="332" cy="732" r="64" fill="#8f8f8f" stroke="#000" stroke-width="8"/>
<circle cx="332" cy="932" r="64" fill="#8f8f8f" stroke="#000" stroke-width="8"/>
<circle cx="532" cy="332" r="64" fill="#8f8f8f" stroke="#000" stroke-width="8"/>
<circle cx="532" cy="532" r="64" fill="#8f8f8f" stroke="#000" stroke-width="8"/>
<circle cx="532" cy="732" r="64" fill="#8f8f8f" stroke="#000" stroke-width="8"/>
<circle cx="532" cy="932" r="64" fill="#8f8f8f" stroke="#000" stroke-width="8"/>
<circle cx="732" cy="432" r="64" fill="#8f8f8f" stroke="#000" stroke-width="8"/>
<circle cx="732" cy="632" r="64" fill="#8f8f8f" stroke="#000" stroke-width="8"/>
<circle cx="732" cy="832" r="64" fill="#8f8f8f" stroke="#000" stroke-width="8"/>
</svg>