<svg xmlns="http://www.w3.org/2000/svg" width="512" height="512">
<line x1="66" y1="66" x2="198" y2="66" stroke="#ff0" stroke-width="4"/>
<line x1="66" y1="66" x2="198" y2="166" stroke="#ff0" stroke-width="4"/>
<line x1="66" y1="66" x2="198" y2="266" stroke="#ff0" stroke-width="4"/>
<line x1="66" y1="66" x2="198" y2="366" stroke="#ff0" stroke-width="4"/>
<line x1="66" y1="166" x2="198" y2="66" stroke="#ff0" stroke-width="4"/>
<line x1="66" y1="166" x2="198" y2="166" stroke="#ff0" stroke-width="4"/>
<line x1="66" y1="166" x2="198" y2="266" stroke="#ff0" stroke-width="4"/>
<line x1="66" y1="166" x2="198" y2="366" stroke="#ff0" stroke-width="4"/>
<line x1="66" y1="266" x2="198" y2="66" stroke="#ff0" stroke-width="4"/>
<line x1="66" y1="266" x2="198" y2="166" stroke="#ff0" stroke-width="4"/>
<line x1="66" y1="266" x2="198" y2="266" stroke="#ff0" stroke-width="4"/>
<line x1="66" y1="266" x2="198" y2="366" stroke="#ff0" stroke-width="4"/>
<line x1="66" y1="366" x2="198" y2="66" stroke="#ff0" stroke-width="4"/>
<line x1="66" y1="366" x2="198" y2="166" stroke="#ff0" stroke-width="4"/>
<line x1="66" y1="366" x2="198" y2="266" stroke="#ff0" stroke-width="4"/>
<line x1="66" y1="366" x2="198" y2="366" stroke="#ff0" stroke-width="4"/>
<line x1="198" y1="66" x2="330" y2="66" stroke="#ff0" stroke-width="4"/>
<line x1="198" y1="66" x2="330" y2="166" stroke="#ff0" stroke-width="4"/>
<line x1="198" y1="66" x2="330" y2="266" stroke="#ff0" stroke-width="4"/>
<line x1="198" y1="66" x2="330" y2="366" stroke="#ff0" stroke-width="4"/>
<line x1="198" y1="166" x2="330" y2="66" stroke="#ff0" stroke-width="4"/>
<line x1="198" y1="166" x2="330" y2="166" stroke="#ff0" stroke-width="4"/>
<line x1="198" y1="166" x2="330" y2="266" stroke="#ff0" stroke-width="4"/>
<line x1="198" y1="166" x2="330" y2="366" stroke="#ff0" stroke-width="4"/>
<line x1="198" y1="266" x2="330" y2="66" stroke="#ff0" stroke-width="4"/>
<line x1="198" y1="266" x2="330" y2="166" stroke="#ff0" stroke-width="4"/>
<line x1="198" y1="266" x2="330" y2="266" stroke="#ff0" stroke-width="4"/>
<line x1="198" y1="266" x2="330" y2="366" stroke="#ff0" stroke-width="4"/>
<line x1="198" y1="366" x2="330" y2="66" stroke="#ff0" stroke-width="4"/>
<line x1="198" y1="366" x2="330" y2="166" stroke="#ff0" stroke-width="4"/>
<line x1="198" y1="366" x2="330" y2="266" stroke="#ff0" stroke-width="4"/>
<line x1="198" y1="366" x2="330" y2="366" stroke="#ff0" stroke-width="4"/>
<line x1="330" y1="66" x2="462" y2="66" stroke="#ff0" stroke-width="4"/>
<line x1="330" y1="66" x2="462" y2="166" stroke="#ff0" stroke-width="4"/>
<line x1="330" y1="66" x2="462" y2="266" stroke="#ff0" stroke-width="4"/>
<line x1="330" y1="66" x2="462" y2="366" stroke="#ff0" stroke-width="4"/>
<line x1="330" y1="166" x2="462" y2="66" stroke="#ff0" stroke-width="4"/>
<line x1="330" y1="166" x2="462" y2="166" stroke="#ff0" stroke-width="4"/>
<line x1="330" y1="166" x2="462" y2="266" stroke="#ff0" stroke-width="4"/>
<line x1="330" y1="166" x2="462" y2="366" stroke="#ff0" stroke-width="4"/>
<line x1="330" y1="266" x2="462" y2="66" stroke="#ff0" stroke-width="4"/>
<line x1="330" y1="266" x2="462" y2="166" stroke="#ff0" stroke-width="4"/>
<line x1="330" y1="266" x2="462" y2="266" stroke="#ff0" stroke-width="4"/>
<line x1="330" y1="266" x2="462" y2="366" stroke="#ff0" stroke-width="4"/>
<line x1="330" y1="366" x2="462" y2="66" stroke="#ff0" stroke-width="4"/>
<line x1="330" y1="366" x2="462" y2="166" stroke="#ff0" stroke-width="4"/>
<line x1="330" y1="366" x2="462" y2="266" stroke="#ff0" stroke-width="4"/>
<line x1="330" y1="366" x2="462" y2="366" stroke="#ff0" stroke-width="4"/>
<circle cx="66" cy="66" r="32" fill="#111" stroke="#ff0" stroke-width="4"/>
<circle cx="66" cy="166" r="32" fill="#111" stroke="#ff0" stroke-width="4"/>
<circle cx="66" cy="266" r="32" fill="#111" stroke="#ff0" stroke-width="4"/>
<circle cx="66" cy="366" r="32" fill="#111" stroke="#ff0" stroke-width="4"/>
<circle cx="198" cy="66" r="32" fill="#111" stroke="#ff0" stroke-width="4"/>
<circle cx="198" cy="166" r="32" fill="#111" stroke="#ff0" stroke-width="4"/>
<circle cx="198" cy="266" r="32" fill="#111" stroke="#ff0" stroke-width="4"/>
<circle cx="198" cy="366" r="32" fill="#111" stroke="#ff0" stroke-width="4"/>
<circle cx="330" cy="66" r="32" fill="#111" stroke="#ff0" stroke-width="4"/>
<circle cx="330" cy="166" r="32" fill="#111" stroke="#ff0" stroke-width="4"/>
<circle cx="330" cy="266" r="32" fill="#111" stroke="#ff0" stroke-width="4"/>
<circle cx="330" cy="366" r="32" fill="#111" stroke="#ff0" stroke-width="4"/>
<circle cx="462" cy="66" r="32" fill="#111" stroke="#ff0" stroke-width="4"/>
<circle cx="462" cy="166" r="32" fill="#111" stroke="#ff0" stroke-width="4"/>
<circle cx="462" cy="266" r="32" fill="#111" stroke="#ff0" stroke-width="4"/>
<circle cx="462" cy="366" r="32" fill="#111" stroke="#ff0" stroke-width="4"/>
</svg>