<svg xmlns="http://www.w3.org/2000/svg" width="600" height="800">
<line x1="49" y1="49" x2="147" y2="181" stroke="#ffffff" stroke-width="2"/>
<line x1="49" y1="49" x2="147" y2="247" stroke="#ffffff" stroke-width="2"/>
<line x1="49" y1="49" x2="147" y2="313" stroke="#ffffff" stroke-width="2"/>
<line x1="49" y1="49" x2="147" y2="379" stroke="#ffffff" stroke-width="2"/>
<line x1="49" y1="49" x2="147" y2="445" stroke="#ffffff" stroke-width="2"/>
<line x1="49" y1="49" x2="147" y2="511" stroke="#ffffff" stroke-width="2"/>
<line x1="49" y1="49" x2="147" y2="577" stroke="#ffffff" stroke-width="2"/>
<line x1="49" y1="49" x2="147" y2="643" stroke="#ffffff" stroke-width="2"/>
<line x1="49" y1="115" x2="147" y2="181" stroke="#ffffff" stroke-width="2"/>
<line x1="49" y1="115" x2="147" y2="247" stroke="#ffffff" stroke-width="2"/>
<line x1="49" y1="115" x2="147" y2="313" stroke="#ffffff" stroke-width="2"/>
<line x1="49" y1="115" x2="147" y2="379" stroke="#ffffff" stroke-width="2"/>
<line x1="49" y1="115" x2="147" y2="445" stroke="#ffffff" stroke-width="2"/>
<line x1="49" y1="115" x2="147" y2="511" stroke="#ffffff" stroke-width="2"/>
<line x1="49" y1="115" x2="147" y2="577" stroke="#ffffff" stroke-width="2"/>
<line x1="49" y1="115" x2="147" y2="643" stroke="#ffffff" stroke-width="2"/>
<line x1="49" y1="181" x2="147" y2="181" stroke="#ffffff" stroke-width="2"/>
<line x1="49" y1="181" x2="147" y2="247" stroke="#ffffff" stroke-width="2"/>
<line x1="49" y1="181" x2="147" y2="313" stroke="#ffffff" stroke-width="2"/>
<line x1="49" y1="181" x2="147" y2="379" stroke="#ffffff" stroke-width="2"/>
<line x1="49" y1="181" x2="147" y2="445" stroke="#ffffff" stroke-width="2"/>
<line x1="49" y1="181" x2="147" y2="511" stroke="#ffffff" stroke-width="2"/>
<line x1="49" y1="181" x2="147" y2="577" stroke="#ffffff" stroke-width="2"/>
<line x1="49" y1="181" x2="147" y2="643" stroke="#ffffff" stroke-width="2"/>
<line x1="49" y1="247" x2="147" y2="181" stroke="#ffffff" stroke-width="2"/>
<line x1="49" y1="247" x2="147" y2="247" stroke="#ffffff" stroke-width="2"/>
<line x1="49" y1="247" x2="147" y2="313" stroke="#ffffff" stroke-width="2"/>
<line x1="49" y1="247" x2="147" y2="379" stroke="#ffffff" stroke-width="2"/>
<line x1="49" y1="247" x2="147" y2="445" stroke="#ffffff" stroke-width="2"/>
<line x1="49" y1="247" x2="147" y2="511" stroke="#ffffff" stroke-width="2"/>
<line x1="49" y1="247" x2="147" y2="577" stroke="#ffffff" stroke-width="2"/>
<line x1="49" y1="247" x2="147" y2="643" stroke="#ffffff" stroke-width="2"/>
<line x1="49" y1="313" x2="147" y2="181" stroke="#ffffff" stroke-width="2"/>
<line x1="49" y1="313" x2="147" y2="247" stroke="#ffffff" stroke-width="2"/>
<line x1="49" y1="313" x2="147" y2="313" stroke="#ffffff" stroke-width="2"/>
<line x1="49" y1="313" x2="147" y2="379" stroke="#ffffff" stroke-width="2"/>
<line x1="49" y1="313" x2="147" y2="445" stroke="#ffffff" stroke-width="2"/>
<line x1="49" y1="313" x2="147" y2="511" stroke="#ffffff" stroke-width="2"/>
<line x1="49" y1="313" x2="147" y2="577" stroke="#ffffff" stroke-width="2"/>
<line x1="49" y1="313" x2="147" y2="643" stroke="#ffffff" stroke-width="2"/>
<line x1="49" y1="379" x2="147" y2="181" stroke="#ffffff" stroke-width="2"/>
<line x1="49" y1="379" x2="147" y2="247" stroke="#ffffff" stroke-width="2"/>
<line x1="49" y1="379" x2="147" y2="313" stroke="#ffffff" stroke-width="2"/>
<line x1="49" y1="379" x2="147" y2="379" stroke="#ffffff" stroke-width="2"/>
<line x1="49" y1="379" x2="147" y2="445" stroke="#ffffff" stroke-width="2"/>
<line x1="49" y1="379" x2="147" y2="511" stroke="#ffffff" stroke-width="2"/>
<line x1="49" y1="379" x2="147" y2="577" stroke="#ffffff" stroke-width="2"/>
<line x1="49" y1="379" x2="147" y2="643" stroke="#ffffff" stroke-width="2"/>
<line x1="49" y1="445" x2="147" y2="181" stroke="#ffffff" stroke-width="2"/>
<line x1="49" y1="445" x2="147" y2="247" stroke="#ffffff" stroke-width="2"/>
<line x1="49" y1="445" x2="147" y2="313" stroke="#ffffff" stroke-width="2"/>
<line x1="49" y1="445" x2="147" y2="379" stroke="#ffffff" stroke-width="2"/>
<line x1="49" y1="445" x2="147" y2="445" stroke="#ffffff" stroke-width="2"/>
<line x1="49" y1="445" x2="147" y2="511" stroke="#ffffff" stroke-width="2"/>
<line x1="49" y1="445" x2="147" y2="577" stroke="#ffffff" stroke-width="2"/>
<line x1="49" y1="445" x2="147" y2="643" stroke="#ffffff" stroke-width="2"/>
<line x1="49" y1="511" x2="147" y2="181" stroke="#ffffff" stroke-width="2"/>
<line x1="49" y1="511" x2="147" y2="247" stroke="#ffffff" stroke-width="2"/>
<line x1="49" y1="511" x2="147" y2="313" stroke="#ffffff" stroke-width="2"/>
<line x1="49" y1="511" x2="147" y2="379" stroke="#ffffff" stroke-width="2"/>
<line x1="49" y1="511" x2="147" y2="445" stroke="#ffffff" stroke-width="2"/>
<line x1="49" y1="511" x2="147" y2="511" stroke="#ffffff" stroke-width="2"/>
<line x1="49" y1="511" x2="147" y2="577" stroke="#ffffff" stroke-width="2"/>
<line x1="49" y1="511" x2="147" y2="643" stroke="#ffffff" stroke-width="2"/>
<line x1="49" y1="577" x2="147" y2="181" stroke="#ffffff" stroke-width="2"/>
<line x1="49" y1="577" x2="147" y2="247" stroke="#ffffff" stroke-width="2"/>
<line x1="49" y1="577" x2="147" y2="313" stroke="#ffffff" stroke-width="2"/>
<line x1="49" y1="577" x2="147" y2="379" stroke="#ffffff" stroke-width="2"/>
<line x1="49" y1="577" x2="147" y2="445" stroke="#ffffff" stroke-width="2"/>
<line x1="49" y1="577" x2="147" y2="511" stroke="#ffffff" stroke-width="2"/>
<line x1="49" y1="577" x2="147" y2="577" stroke="#ffffff" stroke-width="2"/>
<line x1="49" y1="577" x2="147" y2="643" stroke="#ffffff" stroke-width="2"/>
<line x1="49" y1="643" x2="147" y2="181" stroke="#ffffff" stroke-width="2"/>
<line x1="49" y1="643" x2="147" y2="247" stroke="#ffffff" stroke-width="2"/>
<line x1="49" y1="643" x2="147" y2="313" stroke="#ffffff" stroke-width="2"/>
<line x1="49" y1="643" x2="147" y2="379" stroke="#ffffff" stroke-width="2"/>
<line x1="49" y1="643" x2="147" y2="445" stroke="#ffffff" stroke-width="2"/>
<line x1="49" y1="643" x2="147" y2="511" stroke="#ffffff" stroke-width="2"/>
<line x1="49" y1="643" x2="147" y2="577" stroke="#ffffff" stroke-width="2"/>
<line x1="49" y1="643" x2="147" y2="643" stroke="#ffffff" stroke-width="2"/>
<line x1="49" y1="709" x2="147" y2="181" stroke="#ffffff" stroke-width="2"/>
<line x1="49" y1="709" x2="147" y2="247" stroke="#ffffff" stroke-width="2"/>
<line x1="49" y1="709" x2="147" y2="313" stroke="#ffffff" stroke-width="2"/>
<line x1="49" y1="709" x2="147" y2="379" stroke="#ffffff" stroke-width="2"/>
<line x1="49" y1="709" x2="147" y2="445" stroke="#ffffff" stroke-width="2"/>
<line x1="49" y1="709" x2="147" y2="511" stroke="#ffffff" stroke-width="2"/>
<line x1="49" y1="709" x2="147" y2="577" stroke="#ffffff" stroke-width="2"/>
<line x1="49" y1="709" x2="147" y2="643" stroke="#ffffff" stroke-width="2"/>
<line x1="49" y1="775" x2="147" y2="181" stroke="#ffffff" stroke-width="2"/>
<line x1="49" y1="775" x2="147" y2="247" stroke="#ffffff" stroke-width="2"/>
<line x1="49" y1="775" x2="147" y2="313" stroke="#ffffff" stroke-width="2"/>
<line x1="49" y1="775" x2="147" y2="379" stroke="#ffffff" stroke-width="2"/>
<line x1="49" y1="775" x2="147" y2="445" stroke="#ffffff" stroke-width="2"/>
<line x1="49" y1="775" x2="147" y2="511" stroke="#ffffff" stroke-width="2"/>
<line x1="49" y1="775" x2="147" y2="577" stroke="#ffffff" stroke-width="2"/>
<line x1="49" y1="775" x2="147" y2="643" stroke="#ffffff" stroke-width="2"/>
<line x1="147" y1="181" x2="245" y2="181" stroke="#ffffff" stroke-width="2"/>
<line x1="147" y1="181" x2="245" y2="247" stroke="#ffffff" stroke-width="2"/>
<line x1="147" y1="181" x2="245" y2="313" stroke="#ffffff" stroke-width="2"/>
<line x1="147" y1="181" x2="245" y2="379" stroke="#ffffff" stroke-width="2"/>
<line x1="147" y1="181" x2="245" y2="445" stroke="#ffffff" stroke-width="2"/>
<line x1="147" y1="181" x2="245" y2="511" stroke="#ffffff" stroke-width="2"/>
<line x1="147" y1="181" x2="245" y2="577" stroke="#ffffff" stroke-width="2"/>
<line x1="147" y1="181" x2="245" y2="643" stroke="#ffffff" stroke-width="2"/>
<line x1="147" y1="247" x2="245" y2="181" stroke="#ffffff" stroke-width="2"/>
<line x1="147" y1="247" x2="245" y2="247" stroke="#ffffff" stroke-width="2"/>
<line x1="147" y1="247" x2="245" y2="313" stroke="#ffffff" stroke-width="2"/>
<line x1="147" y1="247" x2="245" y2="379" stroke="#ffffff" stroke-width="2"/>
<line x1="147" y1="247" x2="245" y2="445" stroke="#ffffff" stroke-width="2"/>
<line x1="147" y1="247" x2="245" y2="511" stroke="#ffffff" stroke-width="2"/>
<line x1="147" y1="247" x2="245" y2="577" stroke="#ffffff" stroke-width="2"/>
<line x1="147" y1="247" x2="245" y2="643" stroke="#ffffff" stroke-width="2"/>
<line x1="147" y1="313" x2="245" y2="181" stroke="#ffffff" stroke-width="2"/>
<line x1="147" y1="313" x2="245" y2="247" stroke="#ffffff" stroke-width="2"/>
<line x1="147" y1="313" x2="245" y2="313" stroke="#ffffff" stroke-width="2"/>
<line x1="147" y1="313" x2="245" y2="379" stroke="#ffffff" stroke-width="2"/>
<line x1="147" y1="313" x2="245" y2="445" stroke="#ffffff" stroke-width="2"/>
<line x1="147" y1="313" x2="245" y2="511" stroke="#ffffff" stroke-width="2"/>
<line x1="147" y1="313" x2="245" y2="577" stroke="#ffffff" stroke-width="2"/>
<line x1="147" y1="313" x2="245" y2="643" stroke="#ffffff" stroke-width="2"/>
<line x1="147" y1="379" x2="245" y2="181" stroke="#ffffff" stroke-width="2"/>
<line x1="147" y1="379" x2="245" y2="247" stroke="#ffffff" stroke-width="2"/>
<line x1="147" y1="379" x2="245" y2="313" stroke="#ffffff" stroke-width="2"/>
<line x1="147" y1="379" x2="245" y2="379" stroke="#ffffff" stroke-width="2"/>
<line x1="147" y1="379" x2="245" y2="445" stroke="#ffffff" stroke-width="2"/>
<line x1="147" y1="379" x2="245" y2="511" stroke="#ffffff" stroke-width="2"/>
<line x1="147" y1="379" x2="245" y2="577" stroke="#ffffff" stroke-width="2"/>
<line x1="147" y1="379" x2="245" y2="643" stroke="#ffffff" stroke-width="2"/>
<line x1="147" y1="445" x2="245" y2="181" stroke="#ffffff" stroke-width="2"/>
<line x1="147" y1="445" x2="245" y2="247" stroke="#ffffff" stroke-width="2"/>
<line x1="147" y1="445" x2="245" y2="313" stroke="#ffffff" stroke-width="2"/>
<line x1="147" y1="445" x2="245" y2="379" stroke="#ffffff" stroke-width="2"/>
<line x1="147" y1="445" x2="245" y2="445" stroke="#ffffff" stroke-width="2"/>
<line x1="147" y1="445" x2="245" y2="511" stroke="#ffffff" stroke-width="2"/>
<line x1="147" y1="445" x2="245" y2="577" stroke="#ffffff" stroke-width="2"/>
<line x1="147" y1="445" x2="245" y2="643" stroke="#ffffff" stroke-width="2"/>
<line x1="147" y1="511" x2="245" y2="181" stroke="#ffffff" stroke-width="2"/>
<line x1="147" y1="511" x2="245" y2="247" stroke="#ffffff" stroke-width="2"/>
<line x1="147" y1="511" x2="245" y2="313" stroke="#ffffff" stroke-width="2"/>
<line x1="147" y1="511" x2="245" y2="379" stroke="#ffffff" stroke-width="2"/>
<line x1="147" y1="511" x2="245" y2="445" stroke="#ffffff" stroke-width="2"/>
<line x1="147" y1="511" x2="245" y2="511" stroke="#ffffff" stroke-width="2"/>
<line x1="147" y1="511" x2="245" y2="577" stroke="#ffffff" stroke-width="2"/>
<line x1="147" y1="511" x2="245" y2="643" stroke="#ffffff" stroke-width="2"/>
<line x1="147" y1="577" x2="245" y2="181" stroke="#ffffff" stroke-width="2"/>
<line x1="147" y1="577" x2="245" y2="247" stroke="#ffffff" stroke-width="2"/>
<line x1="147" y1="577" x2="245" y2="313" stroke="#ffffff" stroke-width="2"/>
<line x1="147" y1="577" x2="245" y2="379" stroke="#ffffff" stroke-width="2"/>
<line x1="147" y1="577" x2="245" y2="445" stroke="#ffffff" stroke-width="2"/>
<line x1="147" y1="577" x2="245" y2="511" stroke="#ffffff" stroke-width="2"/>
<line x1="147" y1="577" x2="245" y2="577" stroke="#ffffff" stroke-width="2"/>
<line x1="147" y1="577" x2="245" y2="643" stroke="#ffffff" stroke-width="2"/>
<line x1="147" y1="643" x2="245" y2="181" stroke="#ffffff" stroke-width="2"/>
<line x1="147" y1="643" x2="245" y2="247" stroke="#ffffff" stroke-width="2"/>
<line x1="147" y1="643" x2="245" y2="313" stroke="#ffffff" stroke-width="2"/>
<line x1="147" y1="643" x2="245" y2="379" stroke="#ffffff" stroke-width="2"/>
<line x1="147" y1="643" x2="245" y2="445" stroke="#ffffff" stroke-width="2"/>
<line x1="147" y1="643" x2="245" y2="511" stroke="#ffffff" stroke-width="2"/>
<line x1="147" y1="643" x2="245" y2="577" stroke="#ffffff" stroke-width="2"/>
<line x1="147" y1="643" x2="245" y2="643" stroke="#ffffff" stroke-width="2"/>
<line x1="245" y1="181" x2="343" y2="313" stroke="#ffffff" stroke-width="2"/>
<line x1="245" y1="181" x2="343" y2="379" stroke="#ffffff" stroke-width="2"/>
<line x1="245" y1="181" x2="343" y2="445" stroke="#ffffff" stroke-width="2"/>
<line x1="245" y1="181" x2="343" y2="511" stroke="#ffffff" stroke-width="2"/>
<line x1="245" y1="247" x2="343" y2="313" stroke="#ffffff" stroke-width="2"/>
<line x1="245" y1="247" x2="343" y2="379" stroke="#ffffff" stroke-width="2"/>
<line x1="245" y1="247" x2="343" y2="445" stroke="#ffffff" stroke-width="2"/>
<line x1="245" y1="247" x2="343" y2="511" stroke="#ffffff" stroke-width="2"/>
<line x1="245" y1="313" x2="343" y2="313" stroke="#ffffff" stroke-width="2"/>
<line x1="245" y1="313" x2="343" y2="379" stroke="#ffffff" stroke-width="2"/>
<line x1="245" y1="313" x2="343" y2="445" stroke="#ffffff" stroke-width="2"/>
<line x1="245" y1="313" x2="343" y2="511" stroke="#ffffff" stroke-width="2"/>
<line x1="245" y1="379" x2="343" y2="313" stroke="#ffffff" stroke-width="2"/>
<line x1="245" y1="379" x2="343" y2="379" stroke="#ffffff" stroke-width="2"/>
<line x1="245" y1="379" x2="343" y2="445" stroke="#ffffff" stroke-width="2"/>
<line x1="245" y1="379" x2="343" y2="511" stroke="#ffffff" stroke-width="2"/>
<line x1="245" y1="445" x2="343" y2="313" stroke="#ffffff" stroke-width="2"/>
<line x1="245" y1="445" x2="343" y2="379" stroke="#ffffff" stroke-width="2"/>
<line x1="245" y1="445" x2="343" y2="445" stroke="#ffffff" stroke-width="2"/>
<line x1="245" y1="445" x2="343" y2="511" stroke="#ffffff" stroke-width="2"/>
<line x1="245" y1="511" x2="343" y2="313" stroke="#ffffff" stroke-width="2"/>
<line x1="245" y1="511" x2="343" y2="379" stroke="#ffffff" stroke-width="2"/>
<line x1="245" y1="511" x2="343" y2="445" stroke="#ffffff" stroke-width="2"/>
<line x1="245" y1="511" x2="343" y2="511" stroke="#ffffff" stroke-width="2"/>
<line x1="245" y1="577" x2="343" y2="313" stroke="#ffffff" stroke-width="2"/>
<line x1="245" y1="577" x2="343" y2="379" stroke="#ffffff" stroke-width="2"/>
<line x1="245" y1="577" x2="343" y2="445" stroke="#ffffff" stroke-width="2"/>
<line x1="245" y1="577" x2="343" y2="511" stroke="#ffffff" stroke-width="2"/>
<line x1="245" y1="643" x2="343" y2="313" stroke="#ffffff" stroke-width="2"/>
<line x1="245" y1="643" x2="343" y2="379" stroke="#ffffff" stroke-width="2"/>
<line x1="245" y1="643" x2="343" y2="445" stroke="#ffffff" stroke-width="2"/>
<line x1="245" y1="643" x2="343" y2="511" stroke="#ffffff" stroke-width="2"/>
<circle cx="49" cy="49" r="16" fill="#000" stroke="#ffffff" stroke-width="2"/>
<circle cx="49" cy="115" r="16" fill="#000" stroke="#ffffff" stroke-width="2"/>
<circle cx="49" cy="181" r="16" fill="#000" stroke="#ffffff" stroke-width="2"/>
<circle cx="49" cy="247" r="16" fill="#000" stroke="#ffffff" stroke-width="2"/>
<circle cx="49" cy="313" r="16" fill="#000" stroke="#ffffff" stroke-width="2"/>
<circle cx="49" cy="379" r="16" fill="#000" stroke="#ffffff" stroke-width="2"/>
<circle cx="49" cy="445" r="16" fill="#000" stroke="#ffffff" stroke-width="2"/>
<circle cx="49" cy="511" r="16" fill="#000" stroke="#ffffff" stroke-width="2"/>
<circle cx="49" cy="577" r="16" fill="#000" stroke="#ffffff" stroke-width="2"/>
<circle cx="49" cy="643" r="16" fill="#000" stroke="#ffffff" stroke-width="2"/>
<circle cx="49" cy="709" r="16" fill="#000" stroke="#ffffff" stroke-width="2"/>
<circle cx="49" cy="775" r="16" fill="#000" stroke="#ffffff" stroke-width="2"/>
<circle cx="147" cy="181" r="16" fill="#000" stroke="#ffffff" stroke-width="2"/>
<circle cx="147" cy="247" r="16" fill="#000" stroke="#ffffff" stroke-width="2"/>
<circle cx="147" cy="313" r="16" fill="#000" stroke="#ffffff" stroke-width="2"/>
<circle cx="147" cy="379" r="16" fill="#000" stroke="#ffffff" stroke-width="2"/>
<circle cx="147" cy="445" r="16" fill="#000" stroke="#ffffff" stroke-width="2"/>
<circle cx="147" cy="511" r="16" fill="#000" stroke="#ffffff" stroke-width="2"/>
<circle cx="147" cy="577" r="16" fill="#000" stroke="#ffffff" stroke-width="2"/>
<circle cx="147" cy="643" r="16" fill="#000" stroke="#ffffff" stroke-width="2"/>
<circle cx="245" cy="181" r="16" fill="#000" stroke="#ffffff" stroke-width="2"/>
<circle cx="245" cy="247" r="16" fill="#000" stroke="#ffffff" stroke-width="2"/>
<circle cx="245" cy="313" r="16" fill="#000" stroke="#ffffff" stroke-width="2"/>
<circle cx="245" cy="379" r="16" fill="#000" stroke="#ffffff" stroke-width="2"/>
<circle cx="245" cy="445" r="16" fill="#000" stroke="#ffffff" stroke-width="2"/>
<circle cx="245" cy="511" r="16" fill="#000" stroke="#ffffff" stroke-width="2"/>
<circle cx="245" cy="577" r="16" fill="#000" stroke="#ffffff" stroke-width="2"/>
<circle cx="245" cy="643" r="16" fill="#000" stroke="#ffffff" stroke-width="2"/>
<circle cx="343" cy="313" r="16" fill="#000" stroke="#ffffff" stroke-width="2"/>
<circle cx="343" cy="379" r="16" fill="#000" stroke="#ffffff" stroke-width="2"/>
<circle cx="343" cy="445" r="16" fill="#000" stroke="#ffffff" stroke-width="2"/>
<circle cx="343" cy="511" r="16" fill="#000" stroke="#ffffff" stroke-width="2"/>
</svg>